<svg height="512pt" viewBox="-28 0 512 512" width="512pt" xmlns="http://www.w3.org/2000/svg"><path d="m338.132812 342.804688c-36.355468-36.355469-30.980468-62.296876-11.660156-81.617188 19.316406-19.316406 45.261719-24.695312 81.617188 11.660156 28.320312 28.324219 42.882812 85.34375 47.9375 109.160156 1.105468 5.210938-3.523438 9.84375-8.738282 8.734376-23.816406-5.050782-80.835937-19.613282-109.15625-47.9375zm0 0" fill="#935b45"/><path d="m118.058594 342.804688c36.355468-36.355469 30.980468-62.296876 11.660156-81.617188-19.316406-19.316406-45.261719-24.695312-81.617188 11.660156-28.320312 28.324219-42.882812 85.34375-47.9375 109.160156-1.105468 5.210938 3.523438 9.84375 8.738282 8.734376 23.816406-5.050782 80.835937-19.613282 109.15625-47.9375zm0 0" fill="#774839"/><path d="m61.5625 512c0-91.972656 74.558594-166.53125 166.535156-166.53125 91.972656 0 166.53125 74.558594 166.53125 166.53125zm0 0" fill="#ff8da3"/><path d="m134.976562 512h31.304688v-154.675781c-11.070312 4.429687-21.554688 10.003906-31.304688 16.589843zm0 0" fill="#ffeb99"/><path d="m289.910156 512h31.304688v-138.085938c-9.746094-6.585937-20.234375-12.160156-31.304688-16.589843zm0 0" fill="#ffeb99"/><path d="m273.113281 362.464844c0 24.863281-20.152343 45.019531-45.015625 45.019531-24.863281 0-45.019531-20.15625-45.019531-45.019531 0-24.863282 20.15625-45.019532 45.019531-45.019532 24.863282 0 45.015625 20.15625 45.015625 45.019532zm0 0" fill="#ffcfc2"/><path d="m433.8125 204.125c0 19.566406-15.863281 35.425781-35.425781 35.425781-19.566407 0-35.429688-15.859375-35.429688-35.425781s15.863281-35.429688 35.429688-35.429688c19.5625 0 35.425781 15.863282 35.425781 35.429688zm0 0" fill="#ffcfc2"/><path d="m93.234375 204.125c0 19.566406-15.863281 35.425781-35.425781 35.425781-19.566406 0-35.429688-15.859375-35.429688-35.425781s15.863282-35.429688 35.429688-35.429688c19.5625 0 35.425781 15.863282 35.425781 35.429688zm0 0" fill="#ffaea1"/><path d="m228.097656 317.445312c-24.863281 0-45.019531 20.15625-45.019531 45.019532 0 8.039062 2.117187 15.578125 5.808594 22.109375 12.667969 2.605469 25.78125 3.976562 39.210937 3.976562 13.425782 0 26.542969-1.371093 39.210938-3.976562 3.691406-6.53125 5.808594-14.070313 5.808594-22.109375-.003907-24.863282-20.160157-45.019532-45.019532-45.019532zm0 0" fill="#ffaea1"/><path d="m406.816406 194.179688c0 98.703124-80.015625 178.71875-178.71875 178.71875-98.707031 0-178.722656-80.015626-178.722656-178.71875 0-98.707032 80.015625-178.722657 178.722656-178.722657 98.703125 0 178.71875 80.015625 178.71875 178.722657zm0 0" fill="#ffe2d9"/><path d="m91.113281 194.179688c0-91.644532 68.980469-167.164063 157.851563-177.503907-6.847656-.792969-13.808594-1.21875-20.867188-1.21875-98.707031 0-178.722656 80.015625-178.722656 178.722657 0 98.703124 80.015625 178.71875 178.722656 178.71875 7.058594 0 14.019532-.421876 20.867188-1.21875-88.871094-10.335938-157.851563-85.859376-157.851563-177.5zm0 0" fill="#ffcfc2"/><path d="m335.046875 512h-213.902344v-64.171875c0-7.921875 6.421875-14.347656 14.347657-14.347656h185.207031c7.925781 0 14.347656 6.425781 14.347656 14.347656zm0 0" fill="#ffde55"/><path d="m352.652344 204.125v54.296875c0 29.914063 24.25 54.164063 54.164062 54.164063v-120.523438c0-8.136719 6.597656-14.734375 14.734375-14.734375-8.566406-99.210937-92.058593-177.328125-193.453125-177.328125-101.398437 0-184.890625 78.117188-193.457031 177.328125 8.136719 0 14.734375 6.597656 14.734375 14.734375v120.523438c29.914062 0 54.164062-24.25 54.164062-54.164063v-134.085937s29.207032 72.011718 145.144532 69.84375c0 0 9.296875-37.886719-3.585938-82.558594.003906.003906 40.195313 71.113281 107.554688 92.503906zm0 0" fill="#b2785b"/><path d="m228.097656 0c-101.398437 0-184.890625 78.117188-193.457031 177.328125 8.136719 0 14.734375 6.597656 14.734375 14.734375v120.523438c9.328125 0 18.101562-2.359376 25.765625-6.511719v-111.894531c0-100.101563 76.136719-182.746094 173.542969-193.082032-6.765625-.71875-13.632813-1.097656-20.585938-1.097656zm0 0" fill="#935b45"/><g fill="#222223"><path d="m228.097656 257.097656c-9.785156 0-18.894531-5.273437-23.773437-13.761718-2.0625-3.589844-.828125-8.175782 2.761719-10.238282 3.59375-2.066406 8.175781-.828125 10.242187 2.761719 2.210937 3.847656 6.339844 6.238281 10.769531 6.238281 4.429688 0 8.554688-2.390625 10.769532-6.238281 2.0625-3.589844 6.648437-4.828125 10.238281-2.761719 3.589843 2.0625 4.828125 6.648438 2.765625 10.238282-4.882813 8.488281-13.992188 13.761718-23.773438 13.761718zm0 0"/><path d="m293.734375 226.925781c-4.144531 0-7.5-3.359375-7.5-7.5v-11.703125c0-4.140625 3.355469-7.5 7.5-7.5 4.140625 0 7.5 3.359375 7.5 7.5v11.703125c0 4.140625-3.359375 7.5-7.5 7.5zm0 0"/><path d="m162.457031 226.925781c-4.140625 0-7.5-3.359375-7.5-7.5v-11.703125c0-4.140625 3.359375-7.5 7.5-7.5 4.144531 0 7.5 3.359375 7.5 7.5v11.703125c0 4.140625-3.355469 7.5-7.5 7.5zm0 0"/></g><path d="m299.582031 249.046875h-11.699219c-4.144531 0-7.5-3.355469-7.5-7.5 0-4.140625 3.355469-7.5 7.5-7.5h11.699219c4.144531 0 7.5 3.359375 7.5 7.5 0 4.144531-3.355469 7.5-7.5 7.5zm0 0" fill="#f46262"/><path d="m168.3125 249.046875h-11.703125c-4.144531 0-7.5-3.355469-7.5-7.5 0-4.140625 3.355469-7.5 7.5-7.5h11.703125c4.140625 0 7.5 3.359375 7.5 7.5 0 4.144531-3.359375 7.5-7.5 7.5zm0 0" fill="#f46262"/></svg>